<?xml version="1.0" encoding="UTF-8"?>
<!DOCTYPE svg PUBLIC "-//W3C//DTD SVG 1.1//EN" "http://www.w3.org/Graphics/SVG/1.1/DTD/svg11.dtd">
<svg xmlns="http://www.w3.org/2000/svg" version="1.1" width="150px" height="150px" style="shape-rendering:geometricPrecision; text-rendering:geometricPrecision; image-rendering:optimizeQuality; fill-rule:evenodd; clip-rule:evenodd" xmlns:xlink="http://www.w3.org/1999/xlink">
<g><path style="opacity:1" fill="#fefffe" d="M -0.5,-0.5 C 3.83333,-0.5 8.16667,-0.5 12.5,-0.5C 12.5,49.5 12.5,99.5 12.5,149.5C 8.16667,149.5 3.83333,149.5 -0.5,149.5C -0.5,99.5 -0.5,49.5 -0.5,-0.5 Z"/></g>
<g><path style="opacity:1" fill="#010101" d="M 12.5,-0.5 C 54.5,-0.5 96.5,-0.5 138.5,-0.5C 138.5,49.5 138.5,99.5 138.5,149.5C 96.5,149.5 54.5,149.5 12.5,149.5C 12.5,99.5 12.5,49.5 12.5,-0.5 Z"/></g>
<g><path style="opacity:1" fill="#f9f9f9" d="M 138.5,-0.5 C 142.167,-0.5 145.833,-0.5 149.5,-0.5C 149.5,49.5 149.5,99.5 149.5,149.5C 145.833,149.5 142.167,149.5 138.5,149.5C 138.5,99.5 138.5,49.5 138.5,-0.5 Z"/></g>
<g><path style="opacity:1" fill="#e1e1e1" d="M 59.5,65.5 C 60.8333,65.5 62.1667,65.5 63.5,65.5C 63.5,66.8333 63.5,68.1667 63.5,69.5C 60.5,69.8333 59.1667,68.5 59.5,65.5 Z"/></g>
<g><path style="opacity:1" fill="#d5d5d5" d="M 75.5,57.5 C 78.5184,57.3354 81.5184,57.502 84.5,58C 89.0538,60.6034 89.7205,64.1034 86.5,68.5C 91.1223,74.2701 90.1223,78.7701 83.5,82C 78.0633,83.6549 73.8966,82.1549 71,77.5C 70.1263,74.039 70.9597,71.039 73.5,68.5C 70.5169,64.1094 71.1835,60.4427 75.5,57.5 Z"/></g>
<g><path style="opacity:1" fill="#080808" d="M 75.5,70.5 C 78.909,70.2493 82.2423,70.5827 85.5,71.5C 86.952,74.2815 86.6187,76.7815 84.5,79C 81.5,79.6667 78.5,79.6667 75.5,79C 72.8987,76.1705 72.8987,73.3371 75.5,70.5 Z"/></g>
<g><path style="opacity:1" fill="#111111" d="M 76.5,59.5 C 81.137,58.4416 84.4703,59.9416 86.5,64C 83.9525,67.2808 80.6192,68.2808 76.5,67C 73.9142,64.506 73.9142,62.006 76.5,59.5 Z"/></g>
<g><path style="opacity:1" fill="#e2e2e2" d="M 59.5,77.5 C 60.8333,77.5 62.1667,77.5 63.5,77.5C 63.5,78.8333 63.5,80.1667 63.5,81.5C 60.5,81.8333 59.1667,80.5 59.5,77.5 Z"/></g>
<g><path style="opacity:1" fill="#dcdcdc" d="M 38.5,57.5 C 41.5184,57.3354 44.5184,57.502 47.5,58C 51.615,60.437 52.615,63.937 50.5,68.5C 55.1924,74.2013 54.1924,78.7013 47.5,82C 42.0633,83.6549 37.8966,82.1549 35,77.5C 33.9246,73.9331 34.758,70.9331 37.5,68.5C 34.6635,64.5256 34.9968,60.8589 38.5,57.5 Z"/></g>
<g><path style="opacity:1" fill="#0d0d0d" d="M 38.5,70.5 C 42.3076,70.1632 45.9743,70.6632 49.5,72C 51.22,75.0859 50.5534,77.4192 47.5,79C 44.8333,79.6667 42.1667,79.6667 39.5,79C 35.8477,76.5422 35.5144,73.7088 38.5,70.5 Z"/></g>
<g><path style="opacity:1" fill="#141414" d="M 39.5,59.5 C 43.0071,58.9935 46.1737,59.6602 49,61.5C 49.8249,63.7008 49.3249,65.5341 47.5,67C 39.6219,69.5814 36.9553,67.0814 39.5,59.5 Z"/></g>
<g><path style="opacity:1" fill="#d9d9d9" d="M 100.5,57.5 C 105.162,56.8042 109.329,57.8042 113,60.5C 113.725,63.3766 113.225,66.0433 111.5,68.5C 115.876,73.7431 115.21,78.2431 109.5,82C 100.441,83.9163 95.9415,80.4163 96,71.5C 97.2362,70.6008 98.0696,69.4341 98.5,68C 96.7559,63.9537 97.4225,60.4537 100.5,57.5 Z"/></g>
<g><path style="opacity:1" fill="#0d0d0d" d="M 100.5,70.5 C 104.308,70.1632 107.974,70.6632 111.5,72C 113.005,74.912 112.338,77.2454 109.5,79C 106.5,79.6667 103.5,79.6667 100.5,79C 97.8987,76.1705 97.8987,73.3371 100.5,70.5 Z"/></g>
<g><path style="opacity:1" fill="#101010" d="M 101.5,59.5 C 104.545,59.5079 107.545,59.8413 110.5,60.5C 111.372,65.1456 109.538,67.479 105,67.5C 99.3252,66.7989 98.1585,64.1323 101.5,59.5 Z"/></g>
</svg>
